# File created by Blade
# Date/Time:  Fri Jan 16 19:40:56 2015
#---------------------------------------------------------
:version 1.10
:name HOM
:units
  mass 1.0
  length 1.000000
  angle deg
:documentation
     Acclaim Skeleton File
:root
   axis xyz
   order TX TY TZ RX RY RZ
   position 0.000000 0.000000 0.000000
   orientation 0 0 0
:bonedata
   begin
      id 1
      name Spine_dum
      direction 0.000000 1.000000 0.000000
      length 7.067664
      axis 0.0 0.0 0.0 xyz
   end
   begin
      id 2
      name LeftUpLeg_dum
      direction 1.000000 0.000000 0.000000
      length 4.013002
      axis 0.0 0.0 0.0 xyz
   end
   begin
      id 3
      name RightUpLeg_dum
      direction -1.000000 0.000000 0.000000
      length 4.013002
      axis 0.0 0.0 0.0 xyz
   end
   begin
      id 4
      name Spine
      direction 0.000000 1.000000 0.000000
      length 0.000000
      axis 0.0 0.0 0.0 xyz
      dof rx ry rz
   end
   begin
      id 5
      name Spine_dum1
      direction 0.000000 1.000000 0.000000
      length 15.039886
      axis 0.0 0.0 0.0 xyz
   end
   begin
      id 6
      name Spine_dum2
      direction 0.000000 1.000000 0.000000
      length 10.530368
      axis 0.0 0.0 0.0 xyz
   end
   begin
      id 7
      name Spine_dum3
      direction 0.000000 1.000000 0.000000
      length 10.530368
      axis 0.0 0.0 0.0 xyz
   end
   begin
      id 8
      name Head
      direction 0.000000 1.000000 0.000000
      length 4.527550
      axis 0.0 0.0 0.0 xyz
      dof rx ry rz
   end
   begin
      id 9
      name LeftShoulder
      direction 1.000000 0.000000 0.000000
      length 7.028855
      axis 0.0 0.0 -90.0 xyz
      dof rx ry rz
   end
   begin
      id 10
      name LeftArm
      direction 1.000000 0.000000 0.000000
      length 10.797705
      axis 0.0 0.0 -90.0 xyz
      dof rx ry rz
   end
   begin
      id 11
      name LeftForeArm
      direction 1.000000 0.000000 0.000000
      length 7.907442
      axis 0.0 0.0 -90.0 xyz
      dof ry rz rx
   end
   begin
      id 12
      name LeftHand
      direction 0.000000 0.000000 0.000000
      length 0.000000
      axis 0.0 0.0 -90.0 xyz
      dof rx ry rz
   end
   begin
      id 13
      name LeftHand_dum1
      direction 0.000000 0.000000 0.000000
      length 0.000000
      axis 0.0 0.0 -90.0 xyz
   end
   begin
      id 14
      name LeftHand_dum2
      direction 1.000000 0.000000 0.000000
      length 3.937000
      axis 0.0 0.0 -90.0 xyz
   end
   begin
      id 15
      name LeftHandThumb1
      direction 0.000000 0.000000 1.000000
      length 3.937000
      axis 0.0 0.0 -90.0 xyz
      dof rx rz ry
   end
   begin
      id 16
      name RightShoulder
      direction -1.000000 0.000000 0.000000
      length 7.028855
      axis 0.0 0.0 90.0 xyz
      dof rx ry rz
   end
   begin
      id 17
      name RightArm
      direction -1.000000 0.000000 0.000000
      length 10.797705
      axis 0.0 0.0 90.0 xyz
      dof rx ry rz
   end
   begin
      id 18
      name RightForeArm
      direction -1.000000 0.000000 0.000000
      length 7.907442
      axis 0.0 0.0 90.0 xyz
      dof ry rz rx
   end
   begin
      id 19
      name RightHand
      direction 0.000000 0.000000 0.000000
      length 0.000000
      axis 0.0 0.0 90.0 xyz
      dof rx ry rz
   end
   begin
      id 20
      name RightHand_dum1
      direction 0.000000 0.000000 0.000000
      length 0.000000
      axis 0.0 0.0 90.0 xyz
   end
   begin
      id 21
      name RightHand_dum2
      direction -1.000000 0.000000 0.000000
      length 3.937000
      axis 0.0 0.0 90.0 xyz
   end
   begin
      id 22
      name RightHandThumb1
      direction 0.000000 0.000000 1.000000
      length 3.937000
      axis 0.0 0.0 90.0 xyz
      dof rx rz ry
   end
   begin
      id 23
      name LeftUpLeg
      direction 0.000000 -1.000000 0.000000
      length 16.899758
      axis 0.0 0.0 0.0 xyz
      dof rx ry rz
   end
   begin
      id 24
      name LeftLeg
      direction 0.000000 -1.000000 0.000000
      length 17.389183
      axis 0.0 0.0 0.0 xyz
      dof rx ry rz
   end
   begin
      id 25
      name LeftFoot
      direction 0.000000 -0.258819 0.965926
      length 4.924528
      axis 15.0 0.0 0.0 xyz
      dof rx ry rz
   end
   begin
      id 26
      name LeftToeBase
      direction 0.000000 0.000000 1.000000
      length 2.952750
      axis 0.0 0.0 0.0 xyz
      dof rx ry rz
   end
   begin
      id 27
      name RightUpLeg
      direction 0.000000 -1.000000 0.000000
      length 16.899758
      axis 0.0 0.0 0.0 xyz
      dof rx ry rz
   end
   begin
      id 28
      name RightLeg
      direction 0.000000 -1.000000 0.000000
      length 17.389183
      axis 0.0 0.0 0.0 xyz
      dof rx ry rz
   end
   begin
      id 29
      name RightFoot
      direction 0.000000 -0.258819 0.965926
      length 4.924528
      axis 15.0 0.0 0.0 xyz
      dof rx ry rz
   end
   begin
      id 30
      name RightToeBase
      direction 0.000000 0.000000 1.000000
      length 2.952750
      axis 0.0 0.0 0.0 xyz
      dof rx ry rz
   end
:hierarchy
   begin
      root Spine_dum LeftUpLeg_dum RightUpLeg_dum
      Spine_dum Spine
      LeftUpLeg_dum LeftUpLeg
      RightUpLeg_dum RightUpLeg
      Spine Spine_dum1 Spine_dum2 Spine_dum3
      Spine_dum1 Head
      Spine_dum2 LeftShoulder
      Spine_dum3 RightShoulder
      LeftShoulder LeftArm
      LeftArm LeftForeArm
      LeftForeArm LeftHand
      LeftHand LeftHand_dum1 LeftHand_dum2
      LeftHand_dum1 LeftHandThumb1
      RightShoulder RightArm
      RightArm RightForeArm
      RightForeArm RightHand
      RightHand RightHand_dum1 RightHand_dum2
      RightHand_dum1 RightHandThumb1
      LeftUpLeg LeftLeg
      LeftLeg LeftFoot
      LeftFoot LeftToeBase
      RightUpLeg RightLeg
      RightLeg RightFoot
      RightFoot RightToeBase
   end

# File created by Blade
# Date/Time:  Fri Jan 16 19:41:12 2015
# Frame Rate: 120.000 fps
#------------------------------------------------------
:FULLY-SPECIFIED
:DEGREES
110
root 18.374364 35.392925 -21.799210 8.674760 0.233274 -1.702004
Spine -21.047504 -0.980644 -0.863746
Head 8.216034 0.917945 3.723902
LeftShoulder -13.399127 -24.602477 18.045366
LeftArm 0.249805 19.796134 -13.101823
LeftForeArm 10.941240 -0.000000 1.370858
LeftHand -4.113222 -0.000000 -10.422803
LeftHandThumb1 -26.253704 0.000000 33.147579
RightShoulder -13.251499 -7.574562 -7.706947
RightArm 7.143134 41.343230 10.822339
RightForeArm -26.619448 0.000000 6.119417
RightHand -4.411126 -0.000000 8.239392
RightHandThumb1 -24.326973 -0.000000 -32.862282
LeftUpLeg 1.303467 8.681317 2.177779
LeftLeg -6.690191 -0.000000 0.000000
LeftFoot -21.702533 27.702080 -13.088608
LeftToeBase 25.238971 -0.000000 -0.000000
RightUpLeg 0.011470 -8.388574 -0.383449
RightLeg -3.291026 -0.000000 0.000000
RightFoot -22.182624 -21.578813 17.443210
RightToeBase 24.063537 -0.000000 -0.000000
111
root 18.373476 35.392814 -21.796786 8.673613 0.288474 -1.695880
Spine -21.025895 -0.923879 -0.890683
Head 8.192849 0.854559 3.730224
LeftShoulder -13.402946 -24.218728 17.821001
LeftArm 0.086986 20.746921 -13.520874
LeftForeArm 10.827423 -0.000000 1.837743
LeftHand -4.142119 -0.000000 -10.690671
LeftHandThumb1 -26.253704 0.000000 33.147579
RightShoulder -13.272584 -7.279675 -7.889546
RightArm 6.641789 42.216049 10.329571
RightForeArm -25.730067 -0.000000 6.278725
RightHand -4.389223 -0.000000 8.022601
RightHandThumb1 -24.326973 -0.000000 -32.862282
LeftUpLeg 1.296228 8.643139 2.180578
LeftLeg -6.683760 -0.000000 0.000000
LeftFoot -21.695712 27.684214 -13.083572
LeftToeBase 25.240721 -0.000000 -0.000000
RightUpLeg 0.028942 -8.401124 -0.383033
RightLeg -3.300160 -0.000000 0.000000
RightFoot -22.197899 -21.607764 17.458072
RightToeBase 24.050632 -0.000000 -0.000000
112
root 18.372669 35.392899 -21.795226 8.676237 0.353152 -1.684050
Spine -21.009731 -0.897321 -0.908847
Head 8.181003 0.831889 3.727025
LeftShoulder -13.420519 -23.793756 17.602261
LeftArm -0.105903 21.365115 -13.989047
LeftForeArm 10.860394 0.000000 2.282012
LeftHand -4.136935 -0.000000 -11.124039
LeftHandThumb1 -26.253704 0.000000 33.147579
RightShoulder -13.298530 -7.043152 -8.064222
RightArm 6.200680 43.149997 9.837167
RightForeArm -24.822686 -0.000000 6.432387
RightHand -4.424835 -0.000000 7.706640
RightHandThumb1 -24.326973 -0.000000 -32.862282
LeftUpLeg 1.281150 8.602930 2.177134
LeftLeg -6.676487 -0.000000 0.000000
LeftFoot -21.691330 27.663383 -13.087864
LeftToeBase 25.236558 -0.000000 -0.000000
RightUpLeg 0.040234 -8.427033 -0.385212
RightLeg -3.303154 -0.000000 0.000000
RightFoot -22.212058 -21.646610 17.461855
RightToeBase 24.008808 -0.000000 -0.000000
113
root 18.374239 35.393219 -21.792879 8.675364 0.403619 -1.665649
Spine -20.984258 -0.876669 -0.931679
Head 8.157874 0.796314 3.727266
LeftShoulder -13.495097 -23.307009 17.397684
LeftArm -0.264994 21.893640 -14.507126
LeftForeArm 11.020565 -0.000000 2.713295
LeftHand -3.882079 0.000000 -11.309248
LeftHandThumb1 -26.253704 0.000000 33.147579
RightShoulder -13.329904 -6.836712 -8.218564
RightArm 5.821022 44.221828 9.344343
RightForeArm -23.807484 -0.000000 6.538264
RightHand -4.241269 -0.000000 7.457512
RightHandThumb1 -24.326973 -0.000000 -32.862282
LeftUpLeg 1.279329 8.554006 2.162516
LeftLeg -6.676402 -0.000000 0.000000
LeftFoot -21.656065 27.656915 -13.076988
LeftToeBase 25.150274 -0.000000 -0.000000
RightUpLeg 0.056927 -8.425152 -0.401741
RightLeg -3.311823 -0.000000 0.000000
RightFoot -22.231374 -21.678719 17.499276
RightToeBase 23.961931 -0.000000 -0.000000
114
root 18.375032 35.393747 -21.790942 8.673826 0.465647 -1.645352
Spine -20.958166 -0.857834 -0.959498
Head 8.137532 0.741269 3.728281
LeftShoulder -13.651182 -22.702388 17.230659
LeftArm -0.291267 22.262874 -15.102903
LeftForeArm 11.212434 -0.000000 3.185891
LeftHand -3.861791 0.000000 -11.610215
LeftHandThumb1 -26.253704 0.000000 33.147579
RightShoulder -13.437861 -6.724881 -8.379698
RightArm 5.606914 45.273630 8.973096
RightForeArm -22.491570 -0.000000 6.595310
RightHand -4.246270 0.000000 6.849123
RightHandThumb1 -24.326973 -0.000000 -32.862282
LeftUpLeg 1.273003 8.505247 2.149548
LeftLeg -6.680212 -0.000000 0.000000
LeftFoot -21.661795 27.639382 -13.107195
LeftToeBase 25.238406 -0.000000 -0.000000
RightUpLeg 0.078696 -8.428699 -0.416758
RightLeg -3.328785 -0.000000 0.000000
RightFoot -22.255056 -21.734947 17.515167
RightToeBase 24.019647 -0.000000 -0.000000
115
root 18.375238 35.393392 -21.790304 8.663017 0.547098 -1.618574
Spine -20.895662 -0.860613 -0.994515
Head 8.055358 0.678012 3.713523
LeftShoulder -13.734655 -22.257606 17.053062
LeftArm -0.551405 22.819780 -15.729857
LeftForeArm 11.411215 -0.000000 3.808025
LeftHand -3.970991 -0.000000 -11.810442
LeftHandThumb1 -26.253704 0.000000 33.147579
RightShoulder -13.447121 -6.375268 -8.595004
RightArm 5.051780 46.170867 8.399345
RightForeArm -21.084429 -0.000000 6.835070
RightHand -4.304441 -0.000000 6.352499
RightHandThumb1 -24.326973 -0.000000 -32.862282
LeftUpLeg 1.266902 8.449781 2.134261
LeftLeg -6.669721 -0.000000 0.000000
LeftFoot -21.654481 27.608135 -13.109930
LeftToeBase 25.280903 -0.000000 -0.000000
RightUpLeg 0.109585 -8.455606 -0.436707
RightLeg -3.340270 -0.000000 0.000000
RightFoot -22.283834 -21.791147 17.525913
RightToeBase 24.013287 -0.000000 -0.000000
116
root 18.377441 35.393950 -21.790057 8.690889 0.609830 -1.597935
Spine -20.887009 -0.873460 -1.005604
Head 8.000457 0.672977 3.731915
LeftShoulder -13.834423 -21.742790 16.850228
LeftArm -0.838719 23.514210 -16.380055
LeftForeArm 11.493754 -0.000000 4.470349
LeftHand -3.782820 -0.000000 -11.984144
LeftHandThumb1 -26.253704 0.000000 33.147579
RightShoulder -13.482325 -6.082688 -8.831636
RightArm 4.629049 47.109277 7.892232
RightForeArm -19.625630 -0.000000 7.022322
RightHand -4.386128 -0.000000 6.030753
RightHandThumb1 -24.326973 -0.000000 -32.862282
LeftUpLeg 1.223817 8.399718 2.113801
LeftLeg -6.661559 -0.000000 0.000000
LeftFoot -21.634548 27.600768 -13.103231
LeftToeBase 25.233941 -0.000000 -0.000000
RightUpLeg 0.093934 -8.480577 -0.450609
RightLeg -3.343622 -0.000000 0.000000
RightFoot -22.306082 -21.808329 17.545470
RightToeBase 23.992394 -0.000000 -0.000000
